<mxfile host="app.diagrams.net" modified="2024-07-11T07:42:10.803Z" agent="Mozilla/5.0 (Macintosh; Intel Mac OS X 10_15_7) AppleWebKit/537.36 (KHTML, like Gecko) Chrome/126.0.0.0 Safari/537.36" etag="02OsDdsHCc76bIdUZ2Na" version="24.6.4" type="github">
  <diagram name="Page-1" id="13e1069c-82ec-6db2-03f1-153e76fe0fe0">
    <mxGraphModel dx="1194" dy="648" grid="1" gridSize="10" guides="1" tooltips="1" connect="1" arrows="1" fold="1" page="1" pageScale="1" pageWidth="1100" pageHeight="850" background="none" math="0" shadow="0">
      <root>
        <mxCell id="0" />
        <mxCell id="1" parent="0" />
        <mxCell id="L9ybK8gPtVyyDfvODS8n-10" value="" style="shape=umlLifeline;perimeter=lifelinePerimeter;whiteSpace=wrap;html=1;container=1;dropTarget=0;collapsible=0;recursiveResize=0;outlineConnect=0;portConstraint=eastwest;newEdgeStyle={&quot;curved&quot;:0,&quot;rounded&quot;:0};participant=umlActor;" vertex="1" parent="1">
          <mxGeometry x="230" y="80" width="20" height="430" as="geometry" />
        </mxCell>
        <mxCell id="L9ybK8gPtVyyDfvODS8n-20" value="&lt;span style=&quot;font-size: 12px;&quot;&gt;AmpEntrustRequestController&lt;/span&gt;" style="shape=umlLifeline;perimeter=lifelinePerimeter;whiteSpace=wrap;html=1;container=1;dropTarget=0;collapsible=0;recursiveResize=0;outlineConnect=0;portConstraint=eastwest;newEdgeStyle={&quot;curved&quot;:0,&quot;rounded&quot;:0};" vertex="1" parent="1">
          <mxGeometry x="330" y="80" width="180" height="430" as="geometry" />
        </mxCell>
        <mxCell id="L9ybK8gPtVyyDfvODS8n-32" value="" style="html=1;points=[[0,0,0,0,5],[0,1,0,0,-5],[1,0,0,0,5],[1,1,0,0,-5]];perimeter=orthogonalPerimeter;outlineConnect=0;targetShapes=umlLifeline;portConstraint=eastwest;newEdgeStyle={&quot;curved&quot;:0,&quot;rounded&quot;:0};" vertex="1" parent="L9ybK8gPtVyyDfvODS8n-20">
          <mxGeometry x="85" y="60" width="10" height="80" as="geometry" />
        </mxCell>
        <mxCell id="L9ybK8gPtVyyDfvODS8n-33" value="页面发起外委申请" style="html=1;verticalAlign=bottom;startArrow=oval;endArrow=block;startSize=8;curved=0;rounded=0;entryX=0;entryY=0;entryDx=0;entryDy=5;" edge="1" target="L9ybK8gPtVyyDfvODS8n-32" parent="1" source="L9ybK8gPtVyyDfvODS8n-10">
          <mxGeometry x="0.0026" relative="1" as="geometry">
            <mxPoint x="270" y="145" as="sourcePoint" />
            <mxPoint as="offset" />
          </mxGeometry>
        </mxCell>
        <mxCell id="L9ybK8gPtVyyDfvODS8n-34" value="IOutsourcingApplyBiz" style="shape=umlLifeline;perimeter=lifelinePerimeter;whiteSpace=wrap;html=1;container=1;dropTarget=0;collapsible=0;recursiveResize=0;outlineConnect=0;portConstraint=eastwest;newEdgeStyle={&quot;curved&quot;:0,&quot;rounded&quot;:0};" vertex="1" parent="1">
          <mxGeometry x="550" y="80" width="140" height="430" as="geometry" />
        </mxCell>
        <mxCell id="L9ybK8gPtVyyDfvODS8n-40" value="" style="html=1;points=[[0,0,0,0,5],[0,1,0,0,-5],[1,0,0,0,5],[1,1,0,0,-5]];perimeter=orthogonalPerimeter;outlineConnect=0;targetShapes=umlLifeline;portConstraint=eastwest;newEdgeStyle={&quot;curved&quot;:0,&quot;rounded&quot;:0};" vertex="1" parent="L9ybK8gPtVyyDfvODS8n-34">
          <mxGeometry x="65" y="60" width="10" height="370" as="geometry" />
        </mxCell>
        <mxCell id="L9ybK8gPtVyyDfvODS8n-41" value="调用新增/修改外委申请接口" style="html=1;verticalAlign=bottom;endArrow=block;curved=0;rounded=0;entryX=0;entryY=0;entryDx=0;entryDy=5;" edge="1" target="L9ybK8gPtVyyDfvODS8n-40" parent="1" source="L9ybK8gPtVyyDfvODS8n-20">
          <mxGeometry relative="1" as="geometry">
            <mxPoint x="545" y="145" as="sourcePoint" />
          </mxGeometry>
        </mxCell>
        <mxCell id="L9ybK8gPtVyyDfvODS8n-42" value="返回ApiResponse结果" style="html=1;verticalAlign=bottom;endArrow=open;dashed=1;endSize=8;curved=0;rounded=0;exitX=0;exitY=1;exitDx=0;exitDy=-5;" edge="1" source="L9ybK8gPtVyyDfvODS8n-40" parent="1" target="L9ybK8gPtVyyDfvODS8n-20">
          <mxGeometry relative="1" as="geometry">
            <mxPoint x="545" y="215" as="targetPoint" />
            <mxPoint as="offset" />
          </mxGeometry>
        </mxCell>
        <mxCell id="L9ybK8gPtVyyDfvODS8n-43" value="航材计划服务" style="shape=umlLifeline;perimeter=lifelinePerimeter;whiteSpace=wrap;html=1;container=1;dropTarget=0;collapsible=0;recursiveResize=0;outlineConnect=0;portConstraint=eastwest;newEdgeStyle={&quot;curved&quot;:0,&quot;rounded&quot;:0};" vertex="1" parent="1">
          <mxGeometry x="760" y="80" width="100" height="430" as="geometry" />
        </mxCell>
        <mxCell id="L9ybK8gPtVyyDfvODS8n-45" value="" style="html=1;points=[[0,0,0,0,5],[0,1,0,0,-5],[1,0,0,0,5],[1,1,0,0,-5]];perimeter=orthogonalPerimeter;outlineConnect=0;targetShapes=umlLifeline;portConstraint=eastwest;newEdgeStyle={&quot;curved&quot;:0,&quot;rounded&quot;:0};" vertex="1" parent="L9ybK8gPtVyyDfvODS8n-43">
          <mxGeometry x="45" y="60" width="10" height="80" as="geometry" />
        </mxCell>
        <mxCell id="L9ybK8gPtVyyDfvODS8n-46" value="获取销售指令信息" style="html=1;verticalAlign=bottom;endArrow=block;curved=0;rounded=0;entryX=0;entryY=0;entryDx=0;entryDy=5;" edge="1" target="L9ybK8gPtVyyDfvODS8n-45" parent="1" source="L9ybK8gPtVyyDfvODS8n-34">
          <mxGeometry relative="1" as="geometry">
            <mxPoint x="735" y="145" as="sourcePoint" />
            <mxPoint as="offset" />
          </mxGeometry>
        </mxCell>
        <mxCell id="L9ybK8gPtVyyDfvODS8n-47" value="返回可用的销售指令号" style="html=1;verticalAlign=bottom;endArrow=open;dashed=1;endSize=8;curved=0;rounded=0;exitX=0;exitY=1;exitDx=0;exitDy=-5;" edge="1" source="L9ybK8gPtVyyDfvODS8n-45" parent="1" target="L9ybK8gPtVyyDfvODS8n-34">
          <mxGeometry relative="1" as="geometry">
            <mxPoint x="735" y="215" as="targetPoint" />
          </mxGeometry>
        </mxCell>
        <mxCell id="L9ybK8gPtVyyDfvODS8n-48" value="公共权限服务" style="shape=umlLifeline;whiteSpace=wrap;html=1;container=1;dropTarget=0;collapsible=0;recursiveResize=0;outlineConnect=0;portConstraint=eastwest;newEdgeStyle={&quot;curved&quot;:0,&quot;rounded&quot;:0};points=[[0,0,0,0,5],[0,1,0,0,-5],[1,0,0,0,5],[1,1,0,0,-5]];perimeter=rectanglePerimeter;targetShapes=umlLifeline;participant=label;" vertex="1" parent="1">
          <mxGeometry x="930" y="80" width="100" height="430" as="geometry" />
        </mxCell>
        <mxCell id="L9ybK8gPtVyyDfvODS8n-55" value="" style="html=1;points=[[0,0,0,0,5],[0,1,0,0,-5],[1,0,0,0,5],[1,1,0,0,-5]];perimeter=orthogonalPerimeter;outlineConnect=0;targetShapes=umlLifeline;portConstraint=eastwest;newEdgeStyle={&quot;curved&quot;:0,&quot;rounded&quot;:0};" vertex="1" parent="L9ybK8gPtVyyDfvODS8n-48">
          <mxGeometry x="45" y="170" width="10" height="80" as="geometry" />
        </mxCell>
        <mxCell id="L9ybK8gPtVyyDfvODS8n-56" value="调用公共获取用户部门信息" style="html=1;verticalAlign=bottom;endArrow=block;curved=0;rounded=0;entryX=0;entryY=0;entryDx=0;entryDy=5;" edge="1" target="L9ybK8gPtVyyDfvODS8n-55" parent="1" source="L9ybK8gPtVyyDfvODS8n-34">
          <mxGeometry x="0.0014" relative="1" as="geometry">
            <mxPoint x="905" y="255" as="sourcePoint" />
            <mxPoint as="offset" />
          </mxGeometry>
        </mxCell>
        <mxCell id="L9ybK8gPtVyyDfvODS8n-57" value="返回用户详细信息" style="html=1;verticalAlign=bottom;endArrow=open;dashed=1;endSize=8;curved=0;rounded=0;exitX=0;exitY=1;exitDx=0;exitDy=-5;" edge="1" source="L9ybK8gPtVyyDfvODS8n-55" parent="1" target="L9ybK8gPtVyyDfvODS8n-34">
          <mxGeometry relative="1" as="geometry">
            <mxPoint x="905" y="325" as="targetPoint" />
          </mxGeometry>
        </mxCell>
        <mxCell id="L9ybK8gPtVyyDfvODS8n-58" value="IAmpEntrustProcessService" style="shape=umlLifeline;perimeter=lifelinePerimeter;whiteSpace=wrap;html=1;container=1;dropTarget=0;collapsible=0;recursiveResize=0;outlineConnect=0;portConstraint=eastwest;newEdgeStyle={&quot;curved&quot;:0,&quot;rounded&quot;:0};" vertex="1" parent="1">
          <mxGeometry x="1090" y="80" width="160" height="370" as="geometry" />
        </mxCell>
        <mxCell id="L9ybK8gPtVyyDfvODS8n-59" value="" style="html=1;points=[[0,0,0,0,5],[0,1,0,0,-5],[1,0,0,0,5],[1,1,0,0,-5]];perimeter=orthogonalPerimeter;outlineConnect=0;targetShapes=umlLifeline;portConstraint=eastwest;newEdgeStyle={&quot;curved&quot;:0,&quot;rounded&quot;:0};" vertex="1" parent="L9ybK8gPtVyyDfvODS8n-58">
          <mxGeometry x="75" y="290" width="10" height="80" as="geometry" />
        </mxCell>
        <mxCell id="L9ybK8gPtVyyDfvODS8n-60" value="调用流程处理业务服务类，保存操作记录" style="html=1;verticalAlign=bottom;startArrow=oval;endArrow=block;startSize=8;curved=0;rounded=0;entryX=0;entryY=0;entryDx=0;entryDy=5;" edge="1" target="L9ybK8gPtVyyDfvODS8n-59" parent="1" source="L9ybK8gPtVyyDfvODS8n-34">
          <mxGeometry x="0.0009" relative="1" as="geometry">
            <mxPoint x="1095" y="375" as="sourcePoint" />
            <mxPoint as="offset" />
          </mxGeometry>
        </mxCell>
        <mxCell id="L9ybK8gPtVyyDfvODS8n-61" value="IMatStoreFileService" style="shape=umlLifeline;perimeter=lifelinePerimeter;whiteSpace=wrap;html=1;container=1;dropTarget=0;collapsible=0;recursiveResize=0;outlineConnect=0;portConstraint=eastwest;newEdgeStyle={&quot;curved&quot;:0,&quot;rounded&quot;:0};" vertex="1" parent="1">
          <mxGeometry x="1310" y="80" width="120" height="470" as="geometry" />
        </mxCell>
        <mxCell id="L9ybK8gPtVyyDfvODS8n-64" value="" style="html=1;points=[[0,0,0,0,5],[0,1,0,0,-5],[1,0,0,0,5],[1,1,0,0,-5]];perimeter=orthogonalPerimeter;outlineConnect=0;targetShapes=umlLifeline;portConstraint=eastwest;newEdgeStyle={&quot;curved&quot;:0,&quot;rounded&quot;:0};" vertex="1" parent="L9ybK8gPtVyyDfvODS8n-61">
          <mxGeometry x="55" y="380" width="10" height="80" as="geometry" />
        </mxCell>
        <mxCell id="L9ybK8gPtVyyDfvODS8n-65" value="保存提交的附件信息" style="html=1;verticalAlign=bottom;startArrow=oval;endArrow=block;startSize=8;curved=0;rounded=0;entryX=0;entryY=0;entryDx=0;entryDy=5;" edge="1" target="L9ybK8gPtVyyDfvODS8n-64" parent="1" source="L9ybK8gPtVyyDfvODS8n-34">
          <mxGeometry x="0.0007" relative="1" as="geometry">
            <mxPoint x="1295" y="465" as="sourcePoint" />
            <mxPoint as="offset" />
          </mxGeometry>
        </mxCell>
      </root>
    </mxGraphModel>
  </diagram>
</mxfile>
